<?xml version="1.0" encoding="UTF-8"?>
<!DOCTYPE svg PUBLIC "-//W3C//DTD SVG 1.1//EN" "http://www.w3.org/Graphics/SVG/1.1/DTD/svg11.dtd">
<svg xmlns="http://www.w3.org/2000/svg" version="1.1" width="213px" height="213px" style="shape-rendering:geometricPrecision; text-rendering:geometricPrecision; image-rendering:optimizeQuality; fill-rule:evenodd; clip-rule:evenodd" xmlns:xlink="http://www.w3.org/1999/xlink">
<g><path style="opacity:1" fill="#e6d749" d="M -0.5,-0.5 C 56.5,-0.5 113.5,-0.5 170.5,-0.5C 170.611,0.117425 170.944,0.617425 171.5,1C 168.882,3.1057 166.882,5.6057 165.5,8.5C 164.007,9.31212 163.34,10.6455 163.5,12.5C 164.979,20.5759 165.979,28.5759 166.5,36.5C 166.842,37.3382 167.508,37.6716 168.5,37.5C 169.675,37.719 170.675,37.3857 171.5,36.5C 174.279,33.0505 177.112,29.7172 180,26.5C 181.234,20.7892 183.234,15.4559 186,10.5C 186.499,6.84841 186.665,3.18174 186.5,-0.5C 195.167,-0.5 203.833,-0.5 212.5,-0.5C 212.5,22.8333 212.5,46.1667 212.5,69.5C 210.712,69.7852 209.045,69.4519 207.5,68.5C 202.825,65.4354 198.325,62.102 194,58.5C 191.681,57.1287 189.181,56.4621 186.5,56.5C 186.423,55.2502 185.756,54.4169 184.5,54C 180.833,53.3333 177.167,53.3333 173.5,54C 169.947,59.2208 165.447,63.3874 160,66.5C 159.237,69.4695 157.737,71.9695 155.5,74C 156.056,74.3826 156.389,74.8826 156.5,75.5C 155.89,76.391 155.557,77.391 155.5,78.5C 153.104,79.8275 153.104,81.4942 155.5,83.5C 157.206,81.2951 158.706,78.9617 160,76.5C 161.067,75.8095 162.234,75.3095 163.5,75C 167.327,71.4177 170.66,67.4177 173.5,63C 176.907,61.0651 180.574,60.2318 184.5,60.5C 190.096,62.9663 195.429,65.9663 200.5,69.5C 203.059,74.4437 207.059,77.4437 212.5,78.5C 212.5,123.167 212.5,167.833 212.5,212.5C 194.5,212.5 176.5,212.5 158.5,212.5C 160.364,208.762 162.531,205.095 165,201.5C 165.71,202.973 166.876,203.64 168.5,203.5C 167.737,207.138 169.07,208.638 172.5,208C 173.022,207.439 173.355,206.772 173.5,206C 172.852,200.013 172.519,194.346 172.5,189C 176.284,186.811 179.95,184.478 183.5,182C 186.445,180.869 189.445,180.036 192.5,179.5C 192.5,178.5 192.5,177.5 192.5,176.5C 194.199,176.66 195.866,176.494 197.5,176C 200.768,174.328 204.101,172.661 207.5,171C 205.999,169.748 204.332,168.748 202.5,168C 202.833,167.667 203.167,167.333 203.5,167C 202.707,165.915 202.04,164.748 201.5,163.5C 203.5,162.5 205.5,161.5 207.5,160.5C 207.185,158.517 206.185,157.184 204.5,156.5C 202.071,155.129 199.737,153.629 197.5,152C 195.558,149.076 196.225,146.409 199.5,144C 201.848,143.89 203.348,142.723 204,140.5C 204.333,140.833 204.667,141.167 205,141.5C 213.069,133.69 211.235,132.357 199.5,137.5C 196.833,138.167 194.167,138.833 191.5,139.5C 191.351,138.448 191.517,137.448 192,136.5C 194.009,134.99 195.842,133.323 197.5,131.5C 200.5,130.667 203.5,129.833 206.5,129C 206.957,128.586 207.291,128.086 207.5,127.5C 206.359,126.575 206.359,125.741 207.5,125C 205.189,123.948 203.856,122.115 203.5,119.5C 200.198,118.441 197.198,116.941 194.5,115C 195.906,113.022 196.906,110.855 197.5,108.5C 200.445,103.86 198.945,101.193 193,100.5C 191.606,101.613 190.439,102.947 189.5,104.5C 188.675,105.386 187.675,105.719 186.5,105.5C 184.592,105.883 183.092,106.883 182,108.5C 181.24,112.819 180.573,117.152 180,121.5C 175.875,124.194 174.042,122.861 174.5,117.5C 169.833,117.5 165.167,117.5 160.5,117.5C 160.5,118.5 160.5,119.5 160.5,120.5C 159.5,120.5 158.5,120.5 157.5,120.5C 157.063,115.588 157.896,110.922 160,106.5C 160.667,102.5 160.667,98.5 160,94.5C 159.586,94.0426 159.086,93.7093 158.5,93.5C 157.679,96.4465 157.179,99.4465 157,102.5C 156.333,103.167 155.667,103.833 155,104.5C 153.784,102.038 153.118,99.3713 153,96.5C 152.617,95.944 152.117,95.6107 151.5,95.5C 151.015,90.0885 149.848,84.7551 148,79.5C 147,78.8333 146,78.1667 145,77.5C 143.174,82.0976 143.007,86.7643 144.5,91.5C 144.142,95.5092 143.642,99.5092 143,103.5C 140.217,109.793 139.051,116.459 139.5,123.5C 132.609,123.549 125.776,124.215 119,125.5C 112.752,124.893 110.419,121.56 112,115.5C 113.833,116.667 115.333,118.167 116.5,120C 122.782,120.658 128.615,119.491 134,116.5C 135.079,113.937 135.579,111.271 135.5,108.5C 137.499,101.18 134.833,97.8469 127.5,98.5C 126.082,96.6921 124.082,96.0254 121.5,96.5C 122.154,93.506 122.821,90.506 123.5,87.5C 122.505,83.5067 121.505,79.5067 120.5,75.5C 115.152,74.2753 109.819,74.2753 104.5,75.5C 103.972,78.8607 102.139,81.1941 99,82.5C 98.5026,85.146 98.3359,87.8127 98.5,90.5C 96.0425,90.9261 94.8758,92.2594 95,94.5C 96,95.8333 97,95.8333 98,94.5C 99.6989,100.778 103.866,103.778 110.5,103.5C 110.5,104.833 110.5,106.167 110.5,107.5C 104.923,108.183 99.9227,106.849 95.5,103.5C 94.8933,103.624 94.56,103.957 94.5,104.5C 93.1938,104.121 91.8605,103.788 90.5,103.5C 87.1011,105.312 83.4344,105.979 79.5,105.5C 79.5,103.833 79.5,102.167 79.5,100.5C 82.9599,99.7396 83.2932,98.2396 80.5,96C 78.4213,95.1923 76.4213,95.359 74.5,96.5C 73.9984,97.7164 73.6651,98.8831 73.5,100C 78.1172,104.36 77.1172,106.193 70.5,105.5C 69.791,104.596 68.791,104.263 67.5,104.5C 67.9662,102.799 67.9662,101.299 67.5,100C 68.6667,98.1667 70.1667,96.6667 72,95.5C 72.49,94.2068 72.6567,92.8734 72.5,91.5C 73.1174,91.3893 73.6174,91.056 74,90.5C 75.297,85.8831 74.1303,82.0498 70.5,79C 66.7887,78.1747 63.122,78.3414 59.5,79.5C 59.1852,81.483 58.1852,82.8163 56.5,83.5C 56.6427,81.7376 56.3094,80.0709 55.5,78.5C 50.8328,77.6032 46.3328,76.2699 42,74.5C 40.9505,75.5171 39.7839,75.6838 38.5,75C 35.1854,73.4301 32.3521,71.2634 30,68.5C 22.5809,71.3757 22.7475,73.0423 30.5,73.5C 30.762,74.9778 30.4287,76.3112 29.5,77.5C 27.6885,76.2606 25.6885,75.5939 23.5,75.5C 20.8459,76.2675 18.1792,76.4342 15.5,76C 14.3595,75.2588 14.3595,74.4255 15.5,73.5C 18.2947,72.2003 20.9613,70.7003 23.5,69C 20.1993,68.5128 17.5326,67.0128 15.5,64.5C 17.4233,64.795 19.0899,65.6283 20.5,67C 23.0385,67.7958 25.3718,67.6291 27.5,66.5C 28.1667,66.5 28.8333,66.5 29.5,66.5C 32.3382,64.6941 32.0048,63.6941 28.5,63.5C 28.8076,61.076 28.4742,58.7427 27.5,56.5C 25.242,54.3232 23.742,51.6565 23,48.5C 20.8333,47.6667 19.3333,46.1667 18.5,44C 11.8983,43.0082 5.565,43.8415 -0.5,46.5C -0.5,30.8333 -0.5,15.1667 -0.5,-0.5 Z"/></g>
<g><path style="opacity:1" fill="#cfc37a" d="M 170.5,-0.5 C 172.833,-0.5 175.167,-0.5 177.5,-0.5C 173.509,2.4974 169.509,5.4974 165.5,8.5C 166.882,5.6057 168.882,3.1057 171.5,1C 170.944,0.617425 170.611,0.117425 170.5,-0.5 Z"/></g>
<g><path style="opacity:1" fill="#030410" d="M 179.5,-0.5 C 181.5,-0.5 183.5,-0.5 185.5,-0.5C 185.5,0.833333 185.5,2.16667 185.5,3.5C 184.596,4.20895 184.263,5.20895 184.5,6.5C 182.876,6.36007 181.71,7.02674 181,8.5C 179.919,15.0037 177.586,21.0037 174,26.5C 172.865,26.273 171.698,25.9396 170.5,25.5C 169.375,20.5455 168.875,15.5455 169,10.5C 169.374,9.58377 169.874,8.75044 170.5,8C 173.374,7.2624 176.04,6.09573 178.5,4.5C 179.452,2.95467 179.785,1.28801 179.5,-0.5 Z"/></g>
<g><path style="opacity:1" fill="#141105" d="M 177.5,-0.5 C 178.167,-0.5 178.833,-0.5 179.5,-0.5C 179.785,1.28801 179.452,2.95467 178.5,4.5C 176.04,6.09573 173.374,7.2624 170.5,8C 169.874,8.75044 169.374,9.58377 169,10.5C 168.875,15.5455 169.375,20.5455 170.5,25.5C 171.698,25.9396 172.865,26.273 174,26.5C 177.586,21.0037 179.919,15.0037 181,8.5C 181.71,7.02674 182.876,6.36007 184.5,6.5C 184.263,5.20895 184.596,4.20895 185.5,3.5C 184.248,6.98282 183.414,10.6495 183,14.5C 178.795,22.5432 173.962,30.2099 168.5,37.5C 167.508,37.6716 166.842,37.3382 166.5,36.5C 168.075,27.0549 167.742,17.7215 165.5,8.5C 169.509,5.4974 173.509,2.4974 177.5,-0.5 Z"/></g>
<g><path style="opacity:1" fill="#d6c674" d="M 185.5,-0.5 C 185.833,-0.5 186.167,-0.5 186.5,-0.5C 186.665,3.18174 186.499,6.84841 186,10.5C 183.234,15.4559 181.234,20.7892 180,26.5C 177.112,29.7172 174.279,33.0505 171.5,36.5C 170.675,37.3857 169.675,37.719 168.5,37.5C 173.962,30.2099 178.795,22.5432 183,14.5C 183.414,10.6495 184.248,6.98282 185.5,3.5C 185.5,2.16667 185.5,0.833333 185.5,-0.5 Z"/></g>
<g><path style="opacity:1" fill="#dac97b" d="M 165.5,8.5 C 167.742,17.7215 168.075,27.0549 166.5,36.5C 165.979,28.5759 164.979,20.5759 163.5,12.5C 163.34,10.6455 164.007,9.31212 165.5,8.5 Z"/></g>
<g><path style="opacity:1" fill="#dac96b" d="M 134.5,44.5 C 135.338,44.1583 135.672,43.4916 135.5,42.5C 134.167,42.5 133.5,43.1667 133.5,44.5C 129.972,39.1553 131.305,35.3219 137.5,33C 141.262,29.3211 144.429,25.1544 147,20.5C 149.488,19.353 151.488,17.6863 153,15.5C 154.205,16.0712 155.372,16.7379 156.5,17.5C 156.412,21.8873 154.578,25.2206 151,27.5C 150.691,28.7659 150.191,29.9326 149.5,31C 147.481,31.4497 145.648,32.283 144,33.5C 141.436,37.6038 138.603,41.6038 135.5,45.5C 134.893,45.3764 134.56,45.0431 134.5,44.5 Z"/></g>
<g><path style="opacity:1" fill="#322104" d="M 137.5,38.5 C 141.102,31.697 145.936,25.697 152,20.5C 152.667,21.1667 152.667,21.8333 152,22.5C 147.25,28.0745 142.417,33.4078 137.5,38.5 Z"/></g>
<g><path style="opacity:1" fill="#362001" d="M 137.5,38.5 C 137.34,40.153 136.674,41.4863 135.5,42.5C 135.229,40.6203 135.896,39.287 137.5,38.5 Z"/></g>
<g><path style="opacity:1" fill="#423304" d="M 135.5,42.5 C 135.672,43.4916 135.338,44.1583 134.5,44.5C 134.167,44.5 133.833,44.5 133.5,44.5C 133.5,43.1667 134.167,42.5 135.5,42.5 Z"/></g>
<g><path style="opacity:1" fill="#dbcb79" d="M 29.5,66.5 C 25.1834,60.402 21.5167,53.902 18.5,47C 11.9926,46.022 5.65923,46.522 -0.5,48.5C -0.5,47.8333 -0.5,47.1667 -0.5,46.5C 5.565,43.8415 11.8983,43.0082 18.5,44C 19.3333,46.1667 20.8333,47.6667 23,48.5C 23.742,51.6565 25.242,54.3232 27.5,56.5C 28.4742,58.7427 28.8076,61.076 28.5,63.5C 32.0048,63.6941 32.3382,64.6941 29.5,66.5 Z"/></g>
<g><path style="opacity:1" fill="#251104" d="M 111.5,50.5 C 112.506,51.3957 112.506,52.0623 111.5,52.5C 102.362,51.9897 93.3616,52.6564 84.5,54.5C 83.5,54.1667 82.5,53.8333 81.5,53.5C 84.2016,51.6534 87.2016,50.4867 90.5,50C 97.5138,49.5009 104.514,49.6676 111.5,50.5 Z"/></g>
<g><path style="opacity:1" fill="#e1ce62" d="M 30.5,43.5 C 36.1052,42.9081 41.4386,43.7415 46.5,46C 49.8333,46.3333 53.1667,46.6667 56.5,47C 60.6453,50.36 60.312,53.0267 55.5,55C 52.0316,56.0813 49.0316,55.4146 46.5,53C 40.8769,51.971 35.2102,51.471 29.5,51.5C 29.5751,48.7938 29.9084,46.1272 30.5,43.5 Z"/></g>
<g><path style="opacity:1" fill="#3e2906" d="M 31.5,47.5 C 39.8905,46.0886 47.8905,47.5886 55.5,52C 47.586,50.4278 39.586,48.9278 31.5,47.5 Z"/></g>
<g><path style="opacity:1" fill="#daca73" d="M 111.5,50.5 C 104.514,49.6676 97.5138,49.5009 90.5,50C 87.2016,50.4867 84.2016,51.6534 81.5,53.5C 82.5,53.8333 83.5,54.1667 84.5,54.5C 93.3616,52.6564 102.362,51.9897 111.5,52.5C 108.402,53.821 104.902,54.4877 101,54.5C 93.4965,55.0844 85.9965,55.2511 78.5,55C 79.1667,53.3333 79.8333,51.6667 80.5,50C 87.1366,49.1074 93.8033,48.6074 100.5,48.5C 104.565,48.5112 108.232,49.1778 111.5,50.5 Z"/></g>
<g><path style="opacity:1" fill="#d7ca7a" d="M 186.5,56.5 C 184.09,55.6114 181.59,54.9448 179,54.5C 171.8,58.6909 165.467,64.0242 160,70.5C 159.209,71.745 158.709,73.0783 158.5,74.5C 157.833,74.8333 157.167,75.1667 156.5,75.5C 156.389,74.8826 156.056,74.3826 155.5,74C 157.737,71.9695 159.237,69.4695 160,66.5C 165.447,63.3874 169.947,59.2208 173.5,54C 177.167,53.3333 180.833,53.3333 184.5,54C 185.756,54.4169 186.423,55.2502 186.5,56.5 Z"/></g>
<g><path style="opacity:1" fill="#0e0a09" d="M 29.5,66.5 C 28.8333,66.5 28.1667,66.5 27.5,66.5C 17.4429,63.4715 8.10956,58.8048 -0.5,52.5C -0.5,51.1667 -0.5,49.8333 -0.5,48.5C 5.65923,46.522 11.9926,46.022 18.5,47C 21.5167,53.902 25.1834,60.402 29.5,66.5 Z"/></g>
<g><path style="opacity:1" fill="#e0ce59" d="M 160.5,47.5 C 159.89,48.391 159.557,49.391 159.5,50.5C 158.167,50.5 157.5,51.1667 157.5,52.5C 158.167,52.5 158.833,52.5 159.5,52.5C 159.215,54.288 159.548,55.9547 160.5,57.5C 161.873,55.5101 162.873,53.3434 163.5,51C 164.833,50.6667 166.167,50.3333 167.5,50C 170.073,48.4294 172.406,46.596 174.5,44.5C 175.386,45.325 175.719,46.325 175.5,47.5C 176.552,47.3505 177.552,47.5172 178.5,48C 176.833,48.3333 175.167,48.6667 173.5,49C 168.978,52.8551 164.812,57.0218 161,61.5C 160.05,60.9777 159.216,60.311 158.5,59.5C 156.623,60.8026 154.957,62.3026 153.5,64C 147.577,64.1377 142.577,66.3043 138.5,70.5C 137.479,69.9984 137.312,69.3317 138,68.5C 143.756,64.6528 146.589,59.3195 146.5,52.5C 145.167,52.5 143.833,52.5 142.5,52.5C 142.5,50.8333 142.5,49.1667 142.5,47.5C 145.551,47.4538 148.218,48.4538 150.5,50.5C 153.275,49.5806 156.609,48.5806 160.5,47.5 Z"/></g>
<g><path style="opacity:1" fill="#392901" d="M 159.5,50.5 C 159.5,51.1667 159.5,51.8333 159.5,52.5C 158.833,52.5 158.167,52.5 157.5,52.5C 157.5,51.1667 158.167,50.5 159.5,50.5 Z"/></g>
<g><path style="opacity:1" fill="#45300d" d="M 160.5,47.5 C 161.715,48.779 161.382,49.779 159.5,50.5C 159.557,49.391 159.89,48.391 160.5,47.5 Z"/></g>
<g><path style="opacity:1" fill="#362303" d="M 157.5,52.5 C 156.596,56.5651 154.263,59.0651 150.5,60C 152.966,57.5214 155.299,55.0214 157.5,52.5 Z"/></g>
<g><path style="opacity:1" fill="#e6d848" d="M -0.5,56.5 C 4.37463,60.0308 9.70797,62.6975 15.5,64.5C 17.5326,67.0128 20.1993,68.5128 23.5,69C 20.9613,70.7003 18.2947,72.2003 15.5,73.5C 14.3595,74.4255 14.3595,75.2588 15.5,76C 18.1792,76.4342 20.8459,76.2675 23.5,75.5C 25.6885,75.5939 27.6885,76.2606 29.5,77.5C 30.4287,76.3112 30.762,74.9778 30.5,73.5C 22.7475,73.0423 22.5809,71.3757 30,68.5C 32.3521,71.2634 35.1854,73.4301 38.5,75C 39.7839,75.6838 40.9505,75.5171 42,74.5C 46.3328,76.2699 50.8328,77.6032 55.5,78.5C 56.3094,80.0709 56.6427,81.7376 56.5,83.5C 53.3049,83.5131 51.6382,85.1798 51.5,88.5C 52.2651,91.469 53.5984,94.1357 55.5,96.5C 55.2907,97.086 54.9574,97.586 54.5,98C 52.1667,98.6667 49.8333,98.6667 47.5,98C 46.0448,95.9838 44.0448,95.1505 41.5,95.5C 41.5,100.833 41.5,106.167 41.5,111.5C 43.1667,111.5 44.8333,111.5 46.5,111.5C 46.5,113.5 46.5,115.5 46.5,117.5C 46.2222,119.346 46.8888,120.68 48.5,121.5C 50.7534,120.747 52.5867,119.414 54,117.5C 54.3334,119.047 53.8334,120.38 52.5,121.5C 53.376,122.251 54.376,122.751 55.5,123C 53.522,123.481 52.1887,124.647 51.5,126.5C 52.6127,133.451 56.2794,138.618 62.5,142C 55.2467,151.777 51.4133,162.944 51,175.5C 49.9887,176.337 48.8221,176.67 47.5,176.5C 47.334,181.844 47.5006,187.177 48,192.5C 49.0793,190.606 50.4126,190.273 52,191.5C 52.0116,193.434 51.845,195.434 51.5,197.5C 51.5854,199.333 52.2521,200.666 53.5,201.5C 53.8449,204.198 55.1782,206.198 57.5,207.5C 57.5,209.167 57.5,210.833 57.5,212.5C 38.1667,212.5 18.8333,212.5 -0.5,212.5C -0.5,160.5 -0.5,108.5 -0.5,56.5 Z"/></g>
<g><path style="opacity:1" fill="#241806" d="M 186.5,56.5 C 192.735,60.6309 199.068,64.7975 205.5,69C 208.431,71.117 210.098,73.617 210.5,76.5C 207.525,73.6771 204.192,71.3437 200.5,69.5C 195.429,65.9663 190.096,62.9663 184.5,60.5C 182.711,58.9928 180.711,57.6595 178.5,56.5C 171.82,62.5792 165.153,68.5792 158.5,74.5C 158.709,73.0783 159.209,71.745 160,70.5C 165.467,64.0242 171.8,58.6909 179,54.5C 181.59,54.9448 184.09,55.6114 186.5,56.5 Z"/></g>
<g><path style="opacity:1" fill="#d4c675" d="M 186.5,56.5 C 189.181,56.4621 191.681,57.1287 194,58.5C 198.325,62.102 202.825,65.4354 207.5,68.5C 209.045,69.4519 210.712,69.7852 212.5,69.5C 212.5,72.5 212.5,75.5 212.5,78.5C 207.059,77.4437 203.059,74.4437 200.5,69.5C 204.192,71.3437 207.525,73.6771 210.5,76.5C 210.098,73.617 208.431,71.117 205.5,69C 199.068,64.7975 192.735,60.6309 186.5,56.5 Z"/></g>
<g><path style="opacity:1" fill="#d9ca76" d="M -0.5,52.5 C 8.10956,58.8048 17.4429,63.4715 27.5,66.5C 25.3718,67.6291 23.0385,67.7958 20.5,67C 19.0899,65.6283 17.4233,64.795 15.5,64.5C 9.70797,62.6975 4.37463,60.0308 -0.5,56.5C -0.5,55.1667 -0.5,53.8333 -0.5,52.5 Z"/></g>
<g><path style="opacity:1" fill="#a88c36" d="M 51.5,66.5 C 55.5546,66.1758 59.5546,66.5091 63.5,67.5C 60.2302,68.2554 57.2302,69.5887 54.5,71.5C 48.8581,72.3719 43.3581,72.3719 38,71.5C 37.2506,70.365 37.4173,69.365 38.5,68.5C 43.1702,69.6302 47.5035,68.9635 51.5,66.5 Z"/></g>
<g><path style="opacity:1" fill="#d7c76f" d="M 184.5,60.5 C 180.574,60.2318 176.907,61.0651 173.5,63C 170.66,67.4177 167.327,71.4177 163.5,75C 162.234,75.3095 161.067,75.8095 160,76.5C 158.706,78.9617 157.206,81.2951 155.5,83.5C 153.104,81.4942 153.104,79.8275 155.5,78.5C 157.262,77.7377 158.262,76.4044 158.5,74.5C 165.153,68.5792 171.82,62.5792 178.5,56.5C 180.711,57.6595 182.711,58.9928 184.5,60.5 Z"/></g>
<g><path style="opacity:1" fill="#59410e" d="M 158.5,74.5 C 158.262,76.4044 157.262,77.7377 155.5,78.5C 155.557,77.391 155.89,76.391 156.5,75.5C 157.167,75.1667 157.833,74.8333 158.5,74.5 Z"/></g>
<g><path style="opacity:1" fill="#dac870" d="M 151.5,95.5 C 152.172,98.9419 151.172,101.609 148.5,103.5C 150.486,95.1164 149.652,87.1164 146,79.5C 147.017,87.4178 147.517,95.4178 147.5,103.5C 145.979,99.6404 144.979,95.6404 144.5,91.5C 143.007,86.7643 143.174,82.0976 145,77.5C 146,78.1667 147,78.8333 148,79.5C 149.848,84.7551 151.015,90.0885 151.5,95.5 Z"/></g>
<g><path style="opacity:1" fill="#dbcf70" d="M 72.5,91.5 C 70.9754,94.423 68.6421,96.5896 65.5,98C 60.939,98.5896 57.7723,96.7562 56,92.5C 55.3658,89.4453 55.5325,86.4453 56.5,83.5C 58.1852,82.8163 59.1852,81.483 59.5,79.5C 63.122,78.3414 66.7887,78.1747 70.5,79C 74.1303,82.0498 75.297,85.8831 74,90.5C 73.6174,91.056 73.1174,91.3893 72.5,91.5 Z"/></g>
<g><path style="opacity:1" fill="#dfce6a" d="M 121.5,96.5 C 118.547,96.1496 116.213,97.1496 114.5,99.5C 111.482,99.6646 108.482,99.498 105.5,99C 104.128,97.7581 103.128,96.2581 102.5,94.5C 101.675,93.6143 100.675,93.281 99.5,93.5C 99.7373,92.209 99.404,91.209 98.5,90.5C 98.3359,87.8127 98.5026,85.146 99,82.5C 102.139,81.1941 103.972,78.8607 104.5,75.5C 109.819,74.2753 115.152,74.2753 120.5,75.5C 121.505,79.5067 122.505,83.5067 123.5,87.5C 122.821,90.506 122.154,93.506 121.5,96.5 Z"/></g>
<g><path style="opacity:1" fill="#171109" d="M 106.5,78.5 C 115.457,76.9706 119.957,80.6373 120,89.5C 116.405,97.2096 111.072,98.5429 104,93.5C 100.263,87.6903 101.096,82.6903 106.5,78.5 Z"/></g>
<g><path style="opacity:1" fill="#eaedec" d="M 107.5,80.5 C 112.182,80.8748 113.516,83.2082 111.5,87.5C 109.604,88.4656 107.604,88.7989 105.5,88.5C 105.107,85.4867 105.774,82.8201 107.5,80.5 Z"/></g>
<g><path style="opacity:1" fill="#14100c" d="M 63.5,79.5 C 68.1083,79.2749 70.775,81.4415 71.5,86C 71.5691,91.6953 68.9024,95.1953 63.5,96.5C 59.8387,95.194 58.172,92.5273 58.5,88.5C 58.4868,84.5253 60.1535,81.5253 63.5,79.5 Z"/></g>
<g><path style="opacity:1" fill="#dde3e6" d="M 65.5,82.5 C 66.5,82.5 67.5,82.5 68.5,82.5C 69.5749,86.938 67.9083,88.938 63.5,88.5C 63.2525,86.1417 63.9192,84.1417 65.5,82.5 Z"/></g>
<g><path style="opacity:1" fill="#2b1303" d="M 148.5,103.5 C 148.167,103.5 147.833,103.5 147.5,103.5C 147.517,95.4178 147.017,87.4178 146,79.5C 149.652,87.1164 150.486,95.1164 148.5,103.5 Z"/></g>
<g><path style="opacity:1" fill="#dcc76a" d="M 197.5,108.5 C 188.52,113.347 189.187,117.347 199.5,120.5C 200.386,121.325 200.719,122.325 200.5,123.5C 195.248,121.541 190.248,119.041 185.5,116C 199.139,101.99 198.472,101.156 183.5,113.5C 184.448,110.86 185.448,108.193 186.5,105.5C 187.675,105.719 188.675,105.386 189.5,104.5C 190.439,102.947 191.606,101.613 193,100.5C 198.945,101.193 200.445,103.86 197.5,108.5 Z"/></g>
<g><path style="opacity:1" fill="#eec34f" d="M 46.5,117.5 C 46.5,115.5 46.5,113.5 46.5,111.5C 46.3347,107.818 46.5014,104.152 47,100.5C 49.8117,99.4629 52.3117,100.13 54.5,102.5C 55.8001,107.05 55.8001,111.55 54.5,116C 52.1301,118.429 49.4634,118.929 46.5,117.5 Z"/></g>
<g><path style="opacity:1" fill="#e6d64a" d="M 56.5,83.5 C 55.5325,86.4453 55.3658,89.4453 56,92.5C 57.7723,96.7562 60.939,98.5896 65.5,98C 68.6421,96.5896 70.9754,94.423 72.5,91.5C 72.6567,92.8734 72.49,94.2068 72,95.5C 70.1667,96.6667 68.6667,98.1667 67.5,100C 67.9662,101.299 67.9662,102.799 67.5,104.5C 68.791,104.263 69.791,104.596 70.5,105.5C 67.4079,106.495 66.7413,108.495 68.5,111.5C 72.1667,111.833 75.8333,112.167 79.5,112.5C 84.6567,112.708 89.6567,112.042 94.5,110.5C 93.376,109.086 92.376,107.586 91.5,106C 92.7375,105.768 93.7375,105.268 94.5,104.5C 94.56,103.957 94.8933,103.624 95.5,103.5C 99.9227,106.849 104.923,108.183 110.5,107.5C 110.5,106.167 110.5,104.833 110.5,103.5C 103.866,103.778 99.6989,100.778 98,94.5C 97,95.8333 96,95.8333 95,94.5C 94.8758,92.2594 96.0425,90.9261 98.5,90.5C 99.404,91.209 99.7373,92.209 99.5,93.5C 100.675,93.281 101.675,93.6143 102.5,94.5C 103.128,96.2581 104.128,97.7581 105.5,99C 108.482,99.498 111.482,99.6646 114.5,99.5C 113.767,101.963 112.767,104.297 111.5,106.5C 113.168,110.335 114.835,114.168 116.5,118C 120.833,118.667 125.167,118.667 129.5,118C 130.579,117.044 131.745,116.211 133,115.5C 133.39,112.896 134.224,110.562 135.5,108.5C 135.579,111.271 135.079,113.937 134,116.5C 128.615,119.491 122.782,120.658 116.5,120C 115.333,118.167 113.833,116.667 112,115.5C 110.419,121.56 112.752,124.893 119,125.5C 125.776,124.215 132.609,123.549 139.5,123.5C 139.051,116.459 140.217,109.793 143,103.5C 143.642,99.5092 144.142,95.5092 144.5,91.5C 144.979,95.6404 145.979,99.6404 147.5,103.5C 147.833,103.5 148.167,103.5 148.5,103.5C 151.172,101.609 152.172,98.9419 151.5,95.5C 152.117,95.6107 152.617,95.944 153,96.5C 153.118,99.3713 153.784,102.038 155,104.5C 155.667,103.833 156.333,103.167 157,102.5C 157.179,99.4465 157.679,96.4465 158.5,93.5C 159.086,93.7093 159.586,94.0426 160,94.5C 160.667,98.5 160.667,102.5 160,106.5C 157.896,110.922 157.063,115.588 157.5,120.5C 158.5,120.5 159.5,120.5 160.5,120.5C 160.5,119.5 160.5,118.5 160.5,117.5C 165.167,117.5 169.833,117.5 174.5,117.5C 174.042,122.861 175.875,124.194 180,121.5C 180.573,117.152 181.24,112.819 182,108.5C 183.092,106.883 184.592,105.883 186.5,105.5C 185.448,108.193 184.448,110.86 183.5,113.5C 183.5,113.833 183.5,114.167 183.5,114.5C 182.522,114.811 181.855,115.478 181.5,116.5C 182.034,118.614 183.034,120.448 184.5,122C 188.857,122.853 193.191,123.687 197.5,124.5C 198.791,124.737 199.791,124.404 200.5,123.5C 200.719,122.325 200.386,121.325 199.5,120.5C 189.187,117.347 188.52,113.347 197.5,108.5C 196.906,110.855 195.906,113.022 194.5,115C 197.198,116.941 200.198,118.441 203.5,119.5C 203.856,122.115 205.189,123.948 207.5,125C 206.359,125.741 206.359,126.575 207.5,127.5C 207.291,128.086 206.957,128.586 206.5,129C 203.5,129.833 200.5,130.667 197.5,131.5C 195.842,133.323 194.009,134.99 192,136.5C 191.517,137.448 191.351,138.448 191.5,139.5C 194.167,138.833 196.833,138.167 199.5,137.5C 194.646,140.845 189.646,144.012 184.5,147C 185.12,149.473 185.786,151.973 186.5,154.5C 189.465,155.877 192.131,157.543 194.5,159.5C 197.483,163.547 196.483,166.214 191.5,167.5C 191.5,168.5 191.5,169.5 191.5,170.5C 188.042,170.414 186.042,172.081 185.5,175.5C 182.941,175.198 180.607,175.532 178.5,176.5C 177.325,176.719 176.325,176.386 175.5,175.5C 176.127,174.583 176.461,173.583 176.5,172.5C 179.331,169.547 181.331,166.047 182.5,162C 181.567,159.182 179.567,158.016 176.5,158.5C 176.719,157.325 176.386,156.325 175.5,155.5C 170.985,152.698 166.318,152.198 161.5,154C 161.728,154.399 162.062,154.565 162.5,154.5C 162.5,154.833 162.5,155.167 162.5,155.5C 163.656,159.26 166.323,161.26 170.5,161.5C 170.863,162.183 171.196,162.85 171.5,163.5C 168.814,166.726 166.648,170.392 165,174.5C 163.249,175.222 161.749,176.222 160.5,177.5C 160.229,175.688 159.562,174.022 158.5,172.5C 155.411,174.185 153.077,176.519 151.5,179.5C 151.747,180.713 152.414,181.38 153.5,181.5C 154.952,182.302 156.618,182.802 158.5,183C 159.833,184.667 159.833,186.333 158.5,188C 155.79,189.015 153.457,190.515 151.5,192.5C 155.148,196.557 155.315,200.89 152,205.5C 150.604,207.527 148.938,207.86 147,206.5C 146.034,209.34 146.867,211.34 149.5,212.5C 147.167,212.5 144.833,212.5 142.5,212.5C 143.237,210.695 144.237,209.029 145.5,207.5C 145.167,207.167 144.833,206.833 144.5,206.5C 137.216,207.3 129.883,207.8 122.5,208C 118.5,208.667 118.5,209.333 122.5,210C 120.881,210.236 119.881,211.069 119.5,212.5C 98.8333,212.5 78.1667,212.5 57.5,212.5C 57.5,210.833 57.5,209.167 57.5,207.5C 58.8221,207.33 59.9887,207.663 61,208.5C 61.4643,207.906 61.631,207.239 61.5,206.5C 62.6499,207.85 63.3166,207.684 63.5,206C 61.0358,201.905 59.8691,197.405 60,192.5C 58.7083,191.209 57.5417,191.209 56.5,192.5C 56.1667,192.5 55.8333,192.5 55.5,192.5C 53.7345,195.123 53.0679,198.123 53.5,201.5C 52.2521,200.666 51.5854,199.333 51.5,197.5C 51.845,195.434 52.0116,193.434 52,191.5C 50.4126,190.273 49.0793,190.606 48,192.5C 47.5006,187.177 47.334,181.844 47.5,176.5C 48.8221,176.67 49.9887,176.337 51,175.5C 51.4133,162.944 55.2467,151.777 62.5,142C 56.2794,138.618 52.6127,133.451 51.5,126.5C 52.1887,124.647 53.522,123.481 55.5,123C 54.376,122.751 53.376,122.251 52.5,121.5C 53.8334,120.38 54.3334,119.047 54,117.5C 52.5867,119.414 50.7534,120.747 48.5,121.5C 46.8888,120.68 46.2222,119.346 46.5,117.5C 49.4634,118.929 52.1301,118.429 54.5,116C 55.8001,111.55 55.8001,107.05 54.5,102.5C 52.3117,100.13 49.8117,99.4629 47,100.5C 46.5014,104.152 46.3347,107.818 46.5,111.5C 44.8333,111.5 43.1667,111.5 41.5,111.5C 41.5,106.167 41.5,100.833 41.5,95.5C 44.0448,95.1505 46.0448,95.9838 47.5,98C 49.8333,98.6667 52.1667,98.6667 54.5,98C 54.9574,97.586 55.2907,97.086 55.5,96.5C 53.5984,94.1357 52.2651,91.469 51.5,88.5C 51.6382,85.1798 53.3049,83.5131 56.5,83.5 Z"/></g>
<g><path style="opacity:1" fill="#f4c758" d="M 121.5,96.5 C 124.082,96.0254 126.082,96.6921 127.5,98.5C 134.833,97.8469 137.499,101.18 135.5,108.5C 134.224,110.562 133.39,112.896 133,115.5C 131.745,116.211 130.579,117.044 129.5,118C 125.167,118.667 120.833,118.667 116.5,118C 114.835,114.168 113.168,110.335 111.5,106.5C 112.767,104.297 113.767,101.963 114.5,99.5C 116.213,97.1496 118.547,96.1496 121.5,96.5 Z"/></g>
<g><path style="opacity:1" fill="#b7631f" d="M 48.5,102.5 C 52.4122,102.68 54.0789,104.847 53.5,109C 53.3333,110.833 53.1667,112.667 53,114.5C 51.2161,117.003 49.5494,117.003 48,114.5C 47.2375,110.413 47.4042,106.413 48.5,102.5 Z"/></g>
<g><path style="opacity:1" fill="#dccc61" d="M 79.5,100.5 C 79.5,102.167 79.5,103.833 79.5,105.5C 83.4344,105.979 87.1011,105.312 90.5,103.5C 91.8605,103.788 93.1938,104.121 94.5,104.5C 93.7375,105.268 92.7375,105.768 91.5,106C 92.376,107.586 93.376,109.086 94.5,110.5C 89.6567,112.042 84.6567,112.708 79.5,112.5C 75.8333,112.167 72.1667,111.833 68.5,111.5C 66.7413,108.495 67.4079,106.495 70.5,105.5C 77.1172,106.193 78.1172,104.36 73.5,100C 73.6651,98.8831 73.9984,97.7164 74.5,96.5C 76.4213,95.359 78.4213,95.1923 80.5,96C 83.2932,98.2396 82.9599,99.7396 79.5,100.5 Z"/></g>
<g><path style="opacity:1" fill="#3a2807" d="M 77.5,107.5 C 80.4353,107.717 83.2687,108.383 86,109.5C 87.8405,108.875 89.6739,108.708 91.5,109C 89.884,110.077 88.0507,110.577 86,110.5C 82.1469,109.407 78.3136,109.407 74.5,110.5C 73.5,110.167 72.5,109.833 71.5,109.5C 73.6309,108.831 75.6309,108.165 77.5,107.5 Z"/></g>
<g><path style="opacity:1" fill="#392502" d="M 79.5,100.5 C 78.6236,100.631 77.9569,100.298 77.5,99.5C 79.8084,98.1266 80.4751,98.4599 79.5,100.5 Z"/></g>
<g><path style="opacity:1" fill="#bf5f2a" d="M 127.5,98.5 C 128.853,99.5261 129.853,100.859 130.5,102.5C 133.313,106.315 132.979,109.982 129.5,113.5C 121.638,118.882 116.638,116.882 114.5,107.5C 115.794,100.216 120.128,97.2159 127.5,98.5 Z"/></g>
<g><path style="opacity:1" fill="#ce4e3e" d="M 130.5,102.5 C 131.084,105.983 130.251,108.983 128,111.5C 127.503,109.19 127.337,106.857 127.5,104.5C 126.167,104.5 124.833,104.5 123.5,104.5C 123.318,107.622 124.318,110.289 126.5,112.5C 119.542,115.037 116.709,112.704 118,105.5C 121.252,100.268 125.419,99.2679 130.5,102.5 Z"/></g>
<g><path style="opacity:1" fill="#351e07" d="M 200.5,123.5 C 199.791,124.404 198.791,124.737 197.5,124.5C 193.49,121.873 189.156,119.706 184.5,118C 183.663,116.989 183.33,115.822 183.5,114.5C 183.5,114.167 183.5,113.833 183.5,113.5C 198.472,101.156 199.139,101.99 185.5,116C 190.248,119.041 195.248,121.541 200.5,123.5 Z"/></g>
<g><path style="opacity:1" fill="#dcc676" d="M 183.5,114.5 C 183.33,115.822 183.663,116.989 184.5,118C 189.156,119.706 193.49,121.873 197.5,124.5C 193.191,123.687 188.857,122.853 184.5,122C 183.034,120.448 182.034,118.614 181.5,116.5C 181.855,115.478 182.522,114.811 183.5,114.5 Z"/></g>
<g><path style="opacity:1" fill="#ddca66" d="M 172.5,133.5 C 170.572,131.526 168.239,130.026 165.5,129C 161.512,127.883 157.512,127.216 153.5,127C 158.982,128.881 164.315,131.047 169.5,133.5C 167.507,137.145 165.173,140.479 162.5,143.5C 163.373,139.879 164.039,136.212 164.5,132.5C 162.409,132.318 160.409,132.652 158.5,133.5C 155.173,132.005 152.673,129.671 151,126.5C 148.52,127.122 148.02,128.456 149.5,130.5C 149.145,131.522 148.478,132.189 147.5,132.5C 145.941,129.132 145.108,125.465 145,121.5C 144.233,125.594 144.566,129.594 146,133.5C 146.383,134.056 146.883,134.389 147.5,134.5C 147.306,136.912 145.973,137.912 143.5,137.5C 142.219,131.506 142.219,125.506 143.5,119.5C 143.868,118.09 144.701,117.09 146,116.5C 147.131,119.445 147.964,122.445 148.5,125.5C 152.048,124.298 155.715,123.631 159.5,123.5C 159.5,124.5 159.5,125.5 159.5,126.5C 163.909,126.034 167.909,127.034 171.5,129.5C 172.524,128.147 173.857,127.48 175.5,127.5C 175.975,130.313 174.975,132.313 172.5,133.5 Z"/></g>
<g><path style="opacity:1" fill="#351e03" d="M 147.5,132.5 C 147.5,133.167 147.5,133.833 147.5,134.5C 146.883,134.389 146.383,134.056 146,133.5C 144.566,129.594 144.233,125.594 145,121.5C 145.108,125.465 145.941,129.132 147.5,132.5 Z"/></g>
<g><path style="opacity:1" fill="#513907" d="M 63.5,131.5 C 65.9131,133.887 68.5798,136.054 71.5,138C 70.4232,138.47 69.4232,138.303 68.5,137.5C 65.2111,135.384 62.0444,133.051 59,130.5C 58.3333,129.833 58.3333,129.167 59,128.5C 60.2708,129.883 61.7708,130.883 63.5,131.5 Z"/></g>
<g><path style="opacity:1" fill="#dec966" d="M 63.5,131.5 C 61.7708,130.883 60.2708,129.883 59,128.5C 58.3333,129.167 58.3333,129.833 59,130.5C 62.0444,133.051 65.2111,135.384 68.5,137.5C 68.719,138.675 68.3857,139.675 67.5,140.5C 63.4457,137.838 59.779,135.338 56.5,133C 55.4826,130.213 55.3159,127.38 56,124.5C 57.805,127.039 60.305,128.039 63.5,127.5C 63.5,128.833 63.5,130.167 63.5,131.5 Z"/></g>
<g><path style="opacity:1" fill="#be972a" d="M 83.5,136.5 C 90.5,136.5 97.5,136.5 104.5,136.5C 104.62,138.734 104.287,140.901 103.5,143C 100.672,145.994 97.6723,148.827 94.5,151.5C 91.0547,146.295 87.388,141.295 83.5,136.5 Z"/></g>
<g><path style="opacity:1" fill="#2c1f09" d="M 172.5,133.5 C 169.537,137.798 166.203,141.798 162.5,145.5C 161.537,145.03 161.537,144.363 162.5,143.5C 165.173,140.479 167.507,137.145 169.5,133.5C 164.315,131.047 158.982,128.881 153.5,127C 157.512,127.216 161.512,127.883 165.5,129C 168.239,130.026 170.572,131.526 172.5,133.5 Z"/></g>
<g><path style="opacity:1" fill="#d4c36a" d="M 204.5,156.5 C 204.778,158.346 204.111,159.68 202.5,160.5C 199.916,159.607 197.249,159.274 194.5,159.5C 192.131,157.543 189.465,155.877 186.5,154.5C 185.786,151.973 185.12,149.473 184.5,147C 189.646,144.012 194.646,140.845 199.5,137.5C 211.235,132.357 213.069,133.69 205,141.5C 204.667,141.167 204.333,140.833 204,140.5C 203.348,142.723 201.848,143.89 199.5,144C 196.225,146.409 195.558,149.076 197.5,152C 199.737,153.629 202.071,155.129 204.5,156.5 Z"/></g>
<g><path style="opacity:1" fill="#372105" d="M 203.5,138.5 C 204.314,136.727 205.648,136.227 207.5,137C 206.255,137.791 204.922,138.291 203.5,138.5 Z"/></g>
<g><path style="opacity:1" fill="#281d07" d="M 203.5,138.5 C 198.95,142.419 194.283,146.252 189.5,150C 192.545,153.047 195.878,155.713 199.5,158C 193.963,157.495 189.629,154.828 186.5,150C 191.533,145.156 197.2,141.323 203.5,138.5 Z"/></g>
<g><path style="opacity:1" fill="#382305" d="M 63.5,148.5 C 62.5448,150.746 61.8782,153.079 61.5,155.5C 60.6618,155.842 60.3284,156.508 60.5,157.5C 59.866,161.373 58.866,165.039 57.5,168.5C 57.5305,163.375 58.3638,158.375 60,153.5C 60.6972,151.416 61.8639,149.749 63.5,148.5 Z"/></g>
<g><path style="opacity:1" fill="#9a6b0e" d="M 147.5,148.5 C 151.5,148.5 153.5,150.5 153.5,154.5C 150.824,155.008 148.157,155.175 145.5,155C 144.941,154.275 144.608,153.442 144.5,152.5C 145.286,150.959 146.286,149.626 147.5,148.5 Z"/></g>
<g><path style="opacity:1" fill="#483804" d="M 162.5,155.5 C 162.5,155.167 162.5,154.833 162.5,154.5C 164.553,154.402 166.22,155.069 167.5,156.5C 165.708,156.634 164.042,156.301 162.5,155.5 Z"/></g>
<g><path style="opacity:1" fill="#291d06" d="M 167.5,156.5 C 171.641,157.493 175.641,158.993 179.5,161C 180.022,161.561 180.355,162.228 180.5,163C 177.398,166.677 174.398,170.511 171.5,174.5C 170.167,174.833 168.833,175.167 167.5,175.5C 167.5,175.167 167.5,174.833 167.5,174.5C 171.521,171.478 174.855,167.811 177.5,163.5C 174.059,161.017 170.726,158.683 167.5,156.5 Z"/></g>
<g><path style="opacity:1" fill="#dace6d" d="M 176.5,172.5 C 174.95,173.441 173.284,174.107 171.5,174.5C 174.398,170.511 177.398,166.677 180.5,163C 180.355,162.228 180.022,161.561 179.5,161C 175.641,158.993 171.641,157.493 167.5,156.5C 166.22,155.069 164.553,154.402 162.5,154.5C 162.062,154.565 161.728,154.399 161.5,154C 166.318,152.198 170.985,152.698 175.5,155.5C 176.386,156.325 176.719,157.325 176.5,158.5C 179.567,158.016 181.567,159.182 182.5,162C 181.331,166.047 179.331,169.547 176.5,172.5 Z"/></g>
<g><path style="opacity:1" fill="#daca75" d="M 162.5,155.5 C 164.042,156.301 165.708,156.634 167.5,156.5C 170.726,158.683 174.059,161.017 177.5,163.5C 174.855,167.811 171.521,171.478 167.5,174.5C 168.067,170.432 170.067,167.266 173.5,165C 172.956,164.283 172.289,163.783 171.5,163.5C 171.196,162.85 170.863,162.183 170.5,161.5C 166.323,161.26 163.656,159.26 162.5,155.5 Z"/></g>
<g><path style="opacity:1" fill="#534a19" d="M 61.5,155.5 C 61.81,156.738 62.31,156.738 63,155.5C 63.6667,161.167 63.6667,166.833 63,172.5C 62.1617,167.357 61.3284,162.357 60.5,157.5C 60.3284,156.508 60.6618,155.842 61.5,155.5 Z"/></g>
<g><path style="opacity:1" fill="#3f2c05" d="M 85.5,159.5 C 85.2166,168.05 85.2166,176.55 85.5,185C 84.6216,186.8 83.955,188.633 83.5,190.5C 81.1727,190.247 79.1727,190.914 77.5,192.5C 76.4777,192.145 75.811,191.478 75.5,190.5C 77.0174,190.489 78.1841,189.823 79,188.5C 80.0113,189.337 81.1779,189.67 82.5,189.5C 82.4802,187.857 83.1468,186.524 84.5,185.5C 83.3834,180.859 83.3834,176.192 84.5,171.5C 84.1336,166.073 84.467,162.073 85.5,159.5 Z"/></g>
<g><path style="opacity:1" fill="#d6c565" d="M 63.5,148.5 C 64.493,156.984 64.8264,165.651 64.5,174.5C 64.6965,181.208 64.6965,181.541 64.5,175.5C 65.6935,175.97 66.3601,176.97 66.5,178.5C 66.6578,180.319 65.9911,181.652 64.5,182.5C 63.044,179.248 61.7107,175.915 60.5,172.5C 59.6667,173.5 58.8333,174.5 58,175.5C 57.5034,173.19 57.3367,170.857 57.5,168.5C 58.866,165.039 59.866,161.373 60.5,157.5C 61.3284,162.357 62.1617,167.357 63,172.5C 63.6667,166.833 63.6667,161.167 63,155.5C 62.31,156.738 61.81,156.738 61.5,155.5C 61.8782,153.079 62.5448,150.746 63.5,148.5 Z"/></g>
<g><path style="opacity:1" fill="#332701" d="M 64.5,174.5 C 64.5,174.833 64.5,175.167 64.5,175.5C 64.6965,181.541 64.6965,181.208 64.5,174.5 Z"/></g>
<g><path style="opacity:1" fill="#9a670f" d="M 160.5,177.5 C 160.5,178.833 160.5,180.167 160.5,181.5C 158.167,181.5 155.833,181.5 153.5,181.5C 152.414,181.38 151.747,180.713 151.5,179.5C 153.077,176.519 155.411,174.185 158.5,172.5C 159.562,174.022 160.229,175.688 160.5,177.5 Z"/></g>
<g><path style="opacity:1" fill="#e2ce67" d="M 124.5,189.5 C 123.596,188.791 123.263,187.791 123.5,186.5C 122.566,187.568 122.232,188.901 122.5,190.5C 120.821,190.285 119.821,190.952 119.5,192.5C 121.514,192.608 123.18,191.942 124.5,190.5C 125.289,190.783 125.956,191.283 126.5,192C 125.5,193 124.5,194 123.5,195C 117.99,196.89 112.324,197.723 106.5,197.5C 106.405,194.728 105.071,192.728 102.5,191.5C 101.233,188.761 101.399,186.094 103,183.5C 103.333,174.167 103.667,164.833 104,155.5C 105.883,152.976 108.383,151.642 111.5,151.5C 110.621,160.488 109.788,169.488 109,178.5C 105.739,181.269 105.906,183.935 109.5,186.5C 114.662,189.088 119.162,188.088 123,183.5C 126.815,175.939 129.315,167.939 130.5,159.5C 132.833,159.5 135.167,159.5 137.5,159.5C 136.806,164.805 136.472,170.138 136.5,175.5C 135.5,175.5 134.5,175.5 133.5,175.5C 133.567,177.401 133.233,179.234 132.5,181C 129.94,183.969 127.274,186.803 124.5,189.5 Z"/></g>
<g><path style="opacity:1" fill="#301a00" d="M 127.5,180.5 C 127.573,182.027 126.906,183.027 125.5,183.5C 125.427,181.973 126.094,180.973 127.5,180.5 Z"/></g>
<g><path style="opacity:1" fill="#4a310f" d="M 131.5,172.5 C 131.206,175.754 129.873,178.421 127.5,180.5C 128.326,177.515 129.659,174.849 131.5,172.5 Z"/></g>
<g><path style="opacity:1" fill="#2e1602" d="M 108.5,157.5 C 109.124,157.917 109.457,158.584 109.5,159.5C 108.102,165.453 106.935,171.453 106,177.5C 105.225,170.61 106.059,163.943 108.5,157.5 Z"/></g>
<g><path style="opacity:1" fill="#331b00" d="M 131.5,172.5 C 131.312,170.897 131.812,169.563 133,168.5C 133.348,170.14 132.848,171.473 131.5,172.5 Z"/></g>
<g><path style="opacity:1" fill="#d8ca71" d="M 84.5,171.5 C 83.3834,176.192 83.3834,180.859 84.5,185.5C 83.1468,186.524 82.4802,187.857 82.5,189.5C 81.1779,189.67 80.0113,189.337 79,188.5C 78.1841,189.823 77.0174,190.489 75.5,190.5C 75.5,189.833 75.5,189.167 75.5,188.5C 76.6883,187.636 77.8549,186.636 79,185.5C 81.0985,179.674 82.4319,173.674 83,167.5C 83.21,169.058 83.71,170.391 84.5,171.5 Z"/></g>
<g><path style="opacity:1" fill="#412a01" d="M 125.5,183.5 C 125.573,185.027 124.906,186.027 123.5,186.5C 123.427,184.973 124.094,183.973 125.5,183.5 Z"/></g>
<g><path style="opacity:1" fill="#432804" d="M 107.5,190.5 C 103.509,190.352 102.676,188.686 105,185.5C 105.785,187.249 106.618,188.916 107.5,190.5 Z"/></g>
<g><path style="opacity:1" fill="#392310" d="M 123.5,186.5 C 123.263,187.791 123.596,188.791 124.5,189.5C 124.5,189.833 124.5,190.167 124.5,190.5C 123.18,191.942 121.514,192.608 119.5,192.5C 119.821,190.952 120.821,190.285 122.5,190.5C 122.232,188.901 122.566,187.568 123.5,186.5 Z"/></g>
<g><path style="opacity:1" fill="#432b0d" d="M 107.5,190.5 C 111.018,190.764 114.351,191.431 117.5,192.5C 116.469,193.355 115.303,194.022 114,194.5C 111.901,193.713 109.734,193.38 107.5,193.5C 107.5,192.5 107.5,191.5 107.5,190.5 Z"/></g>
<g><path style="opacity:1" fill="#231000" d="M 117.5,192.5 C 118.167,192.5 118.833,192.5 119.5,192.5C 118.833,195.167 118.167,195.167 117.5,192.5 Z"/></g>
<g><path style="opacity:1" fill="#e7d353" d="M 204.5,156.5 C 206.185,157.184 207.185,158.517 207.5,160.5C 205.5,161.5 203.5,162.5 201.5,163.5C 202.04,164.748 202.707,165.915 203.5,167C 203.167,167.333 202.833,167.667 202.5,168C 204.332,168.748 205.999,169.748 207.5,171C 204.101,172.661 200.768,174.328 197.5,176C 195.866,176.494 194.199,176.66 192.5,176.5C 192.5,177.5 192.5,178.5 192.5,179.5C 189.445,180.036 186.445,180.869 183.5,182C 179.95,184.478 176.284,186.811 172.5,189C 172.519,194.346 172.852,200.013 173.5,206C 173.355,206.772 173.022,207.439 172.5,208C 169.07,208.638 167.737,207.138 168.5,203.5C 166.876,203.64 165.71,202.973 165,201.5C 162.531,205.095 160.364,208.762 158.5,212.5C 155.5,212.5 152.5,212.5 149.5,212.5C 146.867,211.34 146.034,209.34 147,206.5C 148.938,207.86 150.604,207.527 152,205.5C 155.315,200.89 155.148,196.557 151.5,192.5C 153.457,190.515 155.79,189.015 158.5,188C 159.833,186.333 159.833,184.667 158.5,183C 156.618,182.802 154.952,182.302 153.5,181.5C 155.833,181.5 158.167,181.5 160.5,181.5C 160.5,180.167 160.5,178.833 160.5,177.5C 161.749,176.222 163.249,175.222 165,174.5C 166.648,170.392 168.814,166.726 171.5,163.5C 172.289,163.783 172.956,164.283 173.5,165C 170.067,167.266 168.067,170.432 167.5,174.5C 167.5,174.833 167.5,175.167 167.5,175.5C 165.807,176.475 164.307,177.808 163,179.5C 162.333,183.833 162.333,188.167 163,192.5C 166.811,188.832 170.978,185.832 175.5,183.5C 179.059,181.553 182.725,179.887 186.5,178.5C 189.455,176.614 192.789,175.614 196.5,175.5C 196.5,174.5 196.5,173.5 196.5,172.5C 198.842,172.496 200.842,171.663 202.5,170C 201.874,169.25 201.374,168.416 201,167.5C 197.905,166.605 194.738,166.605 191.5,167.5C 196.483,166.214 197.483,163.547 194.5,159.5C 197.249,159.274 199.916,159.607 202.5,160.5C 204.111,159.68 204.778,158.346 204.5,156.5 Z"/></g>
<g><path style="opacity:1" fill="#975f17" d="M 176.5,172.5 C 176.461,173.583 176.127,174.583 175.5,175.5C 176.325,176.386 177.325,176.719 178.5,176.5C 178.263,177.791 178.596,178.791 179.5,179.5C 177.672,180.283 176.339,181.616 175.5,183.5C 170.978,185.832 166.811,188.832 163,192.5C 162.333,188.167 162.333,183.833 163,179.5C 164.307,177.808 165.807,176.475 167.5,175.5C 168.833,175.167 170.167,174.833 171.5,174.5C 173.284,174.107 174.95,173.441 176.5,172.5 Z"/></g>
<g><path style="opacity:1" fill="#362308" d="M 186.5,178.5 C 182.725,179.887 179.059,181.553 175.5,183.5C 176.339,181.616 177.672,180.283 179.5,179.5C 181.5,178.167 183.5,176.833 185.5,175.5C 189.686,172.11 194.352,169.944 199.5,169C 194.936,172.095 190.603,175.261 186.5,178.5 Z"/></g>
<g><path style="opacity:1" fill="#dbba7c" d="M 185.5,175.5 C 183.5,176.833 181.5,178.167 179.5,179.5C 178.596,178.791 178.263,177.791 178.5,176.5C 180.607,175.532 182.941,175.198 185.5,175.5 Z"/></g>
<g><path style="opacity:1" fill="#dac770" d="M 186.5,178.5 C 190.603,175.261 194.936,172.095 199.5,169C 194.352,169.944 189.686,172.11 185.5,175.5C 186.042,172.081 188.042,170.414 191.5,170.5C 191.5,169.5 191.5,168.5 191.5,167.5C 194.738,166.605 197.905,166.605 201,167.5C 201.374,168.416 201.874,169.25 202.5,170C 200.842,171.663 198.842,172.496 196.5,172.5C 196.5,173.5 196.5,174.5 196.5,175.5C 192.789,175.614 189.455,176.614 186.5,178.5 Z"/></g>
<g><path style="opacity:1" fill="#3b2608" d="M 55.5,192.5 C 55.8333,192.5 56.1667,192.5 56.5,192.5C 57.2653,195.096 57.5987,197.763 57.5,200.5C 55.7773,198.22 55.1107,195.553 55.5,192.5 Z"/></g>
<g><path style="opacity:1" fill="#dfcc64" d="M 85.5,159.5 C 86.7773,160.694 87.4439,162.36 87.5,164.5C 88.5984,170.143 89.0984,175.809 89,181.5C 87.9635,184.753 87.2969,188.086 87,191.5C 84.6194,192.435 82.1194,192.768 79.5,192.5C 79.5,193.5 79.5,194.5 79.5,195.5C 74.3511,194.888 69.3511,194.388 64.5,194C 64.1751,191.481 64.6751,188.981 66,186.5C 66.4888,188.604 67.6555,188.938 69.5,187.5C 71.0729,187.752 72.4062,188.418 73.5,189.5C 73.5,189.833 73.5,190.167 73.5,190.5C 74.1667,190.5 74.8333,190.5 75.5,190.5C 75.811,191.478 76.4777,192.145 77.5,192.5C 79.1727,190.914 81.1727,190.247 83.5,190.5C 83.955,188.633 84.6216,186.8 85.5,185C 85.2166,176.55 85.2166,168.05 85.5,159.5 Z"/></g>
<g><path style="opacity:1" fill="#443313" d="M 70.5,190.5 C 71.5,190.5 72.5,190.5 73.5,190.5C 72.7399,192.985 71.7399,192.985 70.5,190.5 Z"/></g>
<g><path style="opacity:1" fill="#523c1f" d="M 70.5,190.5 C 69.1417,191.626 67.8084,191.626 66.5,190.5C 67.771,190.874 68.9377,190.208 70,188.5C 70.4643,189.094 70.631,189.761 70.5,190.5 Z"/></g>
<g><path style="opacity:1" fill="#3f3801" d="M 75.5,188.5 C 75.5,189.167 75.5,189.833 75.5,190.5C 74.8333,190.5 74.1667,190.5 73.5,190.5C 73.5,190.167 73.5,189.833 73.5,189.5C 73.8417,188.662 74.5084,188.328 75.5,188.5 Z"/></g>
<g><path style="opacity:1" fill="#dec976" d="M 61.5,206.5 C 61.5,205.167 60.8333,204.5 59.5,204.5C 59.8432,202.517 59.1765,201.183 57.5,200.5C 57.5987,197.763 57.2653,195.096 56.5,192.5C 57.5417,191.209 58.7083,191.209 60,192.5C 59.8691,197.405 61.0358,201.905 63.5,206C 63.3166,207.684 62.6499,207.85 61.5,206.5 Z"/></g>
<g><path style="opacity:1" fill="#3a2308" d="M 57.5,200.5 C 59.1765,201.183 59.8432,202.517 59.5,204.5C 57.8235,203.817 57.1568,202.483 57.5,200.5 Z"/></g>
<g><path style="opacity:1" fill="#402a0a" d="M 155.5,208.5 C 157.158,205.184 158.825,201.85 160.5,198.5C 160.833,199 161.167,199.5 161.5,200C 160.803,203.884 158.803,206.718 155.5,208.5 Z"/></g>
<g><path style="opacity:1" fill="#2a1501" d="M 59.5,204.5 C 60.8333,204.5 61.5,205.167 61.5,206.5C 60.1667,206.5 59.5,205.833 59.5,204.5 Z"/></g>
<g><path style="opacity:1" fill="#dcc870" d="M 55.5,192.5 C 55.1107,195.553 55.7773,198.22 57.5,200.5C 57.1568,202.483 57.8235,203.817 59.5,204.5C 59.5,205.833 60.1667,206.5 61.5,206.5C 61.631,207.239 61.4643,207.906 61,208.5C 59.9887,207.663 58.8221,207.33 57.5,207.5C 55.1782,206.198 53.8449,204.198 53.5,201.5C 53.0679,198.123 53.7345,195.123 55.5,192.5 Z"/></g>
<g><path style="opacity:1" fill="#debf42" d="M 142.5,212.5 C 134.833,212.5 127.167,212.5 119.5,212.5C 119.881,211.069 120.881,210.236 122.5,210C 118.5,209.333 118.5,208.667 122.5,208C 129.883,207.8 137.216,207.3 144.5,206.5C 144.833,206.833 145.167,207.167 145.5,207.5C 144.237,209.029 143.237,210.695 142.5,212.5 Z"/></g>
<g><path style="opacity:1" fill="#5a4000" d="M 155.5,208.5 C 155.361,210.337 154.694,210.67 153.5,209.5C 153.957,208.702 154.624,208.369 155.5,208.5 Z"/></g>
</svg>
